# xmcd
#
# Track frame offsets:
#  150
#  36825
#  60034
#  87121
#  103908
#  119784
#  135829
#  155824
#  190397
#  210320
#  232839
#  262689
#  279790
#  289986
#  305295
#
# Disc length: 4440 seconds
#
# Revision: 0
# Processed by: cddbd v1.5.1PL2 Copyright (c) Steve Scherf et al.
# Submitted via: Collectorz.com_Music_Collector 6.11
#
DISCID=c411560f
DTITLE=10cc - Windows In The Jungle and 7
DYEAR=2006
DGENRE=General Rock
TTITLE0=24 Hours
TTITLE1=Feel The Love (Oomachasaooma)
TTITLE2=Yes, I Am
TTITLE3=Americana Panorama
TTITLE4=City Lights
TTITLE5=Food For Thought
TTITLE6=Working Girls
TTITLE7=Taxi! Taxi!
TTITLE8=24 Hours (Radio Edit)
TTITLE9=Dreadlock Holiday (Live)
TTITLE10=I'm Not In Love (Live)
TTITLE11=Feel The Love (Radio Edit)
TTITLE12=She Gives Me Pain
TTITLE13=Food For Thought (Radio Edit)
TTITLE14=The Secret Life Of Henry
EXTD=
EXTT0=
EXTT1=
EXTT2=
EXTT3=
EXTT4=
EXTT5=
EXTT6=
EXTT7=
EXTT8=
EXTT9=
EXTT10=
EXTT11=
EXTT12=
EXTT13=
EXTT14=
PLAYORDER=
